<svg width="300" height="512" xmlns="http://www.w3.org/2000/svg" version="1.1" xml:space="preserve">
 <g>
  <title>Layer 1</title>
  <g id="freepik--Character--inject-59">
   <path class="st0" d="m72.99402,423.20813l-36.74486,27.06319l-16.11121,25.53655c-1.13061,1.80421 -5.08775,2.77571 -8.47958,2.22057l-0.28265,0l0,0c-1.97857,-0.41636 -3.67449,-1.24907 -4.23979,-2.22057c-3.39183,-6.8005 -15.5459,-31.22676 -12.43672,-33.16976c3.39183,-2.22057 34.76629,-29.70012 34.76629,-29.70012l43.52852,10.27014z" fill="#DD3D31" id="svg_1"/>
   <g class="st1" opacity="0.6" id="svg_2">
    <path class="st2" d="m11.09307,477.75088l-14.13264,-37.19454l-1.41326,1.11028c-1.41326,0.9715 -1.69592,2.22057 -1.41326,3.33085c0.84796,3.19207 3.67449,11.79678 13.00203,30.39405c0.28265,1.11028 1.97857,2.08178 3.95714,2.35936l0,0l-0.00001,0z" fill="#FFFFFF" id="svg_3"/>
   </g>
   <g class="st1" opacity="0.6" id="svg_4">
    <path class="st2" d="m19.57266,435.28248c0.84796,0.9715 0,2.08178 -1.97857,2.49814s-4.23979,0 -5.08775,-0.83271c-0.84796,-0.9715 0,-2.22057 1.97857,-2.63693c1.97857,-0.27757 4.23979,0.27757 5.08775,1.24907" fill="#FFFFFF" id="svg_5"/>
   </g>
   <path class="st3" d="m13.63695,461.92932c2.54387,-0.41636 5.08775,-0.69393 7.63162,-0.55514c2.54387,0.27757 5.08775,0.69393 7.06632,1.38786c0,0 -0.28265,-0.55514 -1.41326,-0.9715c-1.69592,-0.69393 -3.67449,-0.9715 -5.65305,-1.11028c-1.97857,-0.13879 -3.95714,0 -5.93571,0.55514c-1.13061,0.13879 -1.69592,0.55514 -1.69592,0.69393l0,-0.00001z" fill="#263238" id="svg_6"/>
   <path class="st3" d="m13.07164,466.78681c2.26122,0 4.23979,0.13879 6.50101,0.41636c3.39183,0.41636 5.65305,1.52664 5.93571,1.38786s-1.69592,-1.52664 -5.65305,-2.08178c-2.26122,-0.41636 -4.8051,-0.41636 -6.78367,0.27757l0,-0.00001z" fill="#263238" id="svg_7"/>
   <path class="st3" d="m12.50634,454.85125c3.39183,0 6.78367,0 10.1755,0.27757c3.10918,0.41636 6.50101,0.9715 9.61019,1.66543c-2.54387,-1.24907 -5.65305,-2.08178 -9.32754,-2.35936c-3.67449,-0.55514 -7.34897,-0.27757 -10.45815,0.41636z" fill="#263238" id="svg_8"/>
   <path class="st3" d="m22.11653,446.24654c0,0.27757 3.95714,0.55514 7.91428,1.66543s6.78367,2.63693 7.06632,2.49814c-1.41326,-1.38786 -3.67449,-2.49814 -6.21836,-3.05328c-2.54387,-0.9715 -5.65305,-1.24907 -8.76224,-1.11028l0,-0.00001z" fill="#263238" id="svg_9"/>
   <path class="st3" d="m32.57468,438.05819c2.82653,0.41636 5.93571,0.9715 8.47958,1.66543c2.26122,0.9715 4.52244,1.943 6.21836,3.19207c0.28265,0 0,-0.55514 -0.84796,-1.38786c-2.26122,-1.943 -6.21836,-3.33085 -11.02346,-3.60843c-1.97857,0 -2.82653,0.13879 -2.82653,0.13879l0.00001,0z" fill="#263238" id="svg_10"/>
   <path class="st3" d="m42.75018,438.33576c0.56531,-0.27757 1.13061,-0.69393 1.41326,-0.9715c1.13061,-0.9715 1.69592,-2.08178 1.69592,-3.33085c0.28265,-0.83271 0,-1.66543 -0.84796,-2.35936c-0.56531,-0.41636 -1.69592,-0.69393 -2.82653,-0.55514s-1.97857,0.55514 -2.54387,0.9715c-2.26122,1.943 -1.13061,4.44114 2.26122,5.829c3.67449,1.24907 8.47958,1.52664 12.15407,0.41636c0.84796,-0.27757 1.69592,-0.69393 1.97857,-1.24907c0,-0.55514 -0.56531,-1.11028 -1.69592,-1.38786c-1.69592,-0.27757 -3.39183,-0.27757 -4.8051,-0.13879c-2.26122,0.13879 -4.52244,0.41636 -6.50101,0.9715c-1.41326,0.41636 -2.26122,0.69393 -1.97857,0.69393c2.82653,-0.55514 5.65305,-0.9715 8.76224,-1.11028c1.41326,-0.13879 2.82653,0 4.23979,0.27757c0.56531,0.13879 0.84796,0.41636 0.84796,0.69393c-0.28265,0.27757 -0.56531,0.69393 -1.41326,0.83271c-3.39183,0.83271 -7.63162,0.69393 -10.7408,-0.41636c-3.10918,-1.24907 -3.95714,-3.33085 -2.26122,-4.99628c0.28265,-0.27757 0.84796,-0.55514 1.69592,-0.69393c0.56531,-0.13879 1.13061,0 1.69592,0.27757c0.56531,0.55514 0.84796,1.24907 0.84796,2.08178c0,1.24907 -0.84796,2.77571 -1.97857,4.16357l-0.00002,0z" fill="#263238" id="svg_11"/>
   <path class="st0" d="m107.76031,438.75212l4.23979,27.06319c0,0 -54.83463,9.15985 -55.11728,14.29492l107.40804,-0.13879l-2.82653,-42.32961l-53.70402,1.11028l0,0.00001z" fill="#DD3D31" id="svg_12"/>
   <g class="st1" opacity="0.6" id="svg_13">
    <path class="st2" d="m145.07047,462.90082c2.26122,0.27757 3.67449,1.24907 3.10918,2.35936c-0.56531,1.11028 -2.54387,1.80421 -4.8051,1.52664c-2.26122,-0.27757 -3.67449,-1.38786 -3.39183,-2.49814c0.84796,-1.11028 3.10918,-1.66543 5.08775,-1.38786" fill="#FFFFFF" id="svg_14"/>
   </g>
   <g class="st1" opacity="0.6" id="svg_15">
    <path class="st2" d="m164.29086,479.97145l-0.28265,-4.30235l-103.73356,1.943c-2.26122,0.55514 -3.67449,1.66543 -3.95714,2.9145l107.97335,-0.55514l0,-0.00001z" fill="#FFFFFF" id="svg_16"/>
   </g>
   <path class="st3" d="m110.30419,465.53774c0,0.27757 2.54387,0.27757 5.3704,1.11028s3.95714,1.80421 4.52244,1.66543s-0.56531,-1.52664 -3.67449,-2.49814s-6.50101,-0.41636 -6.21836,-0.27757l0.00001,0z" fill="#263238" id="svg_17"/>
   <path class="st3" d="m98.99808,468.03589c0,0.27757 2.26122,0.69393 3.95714,1.66543s2.54387,2.22057 3.10918,2.22057s0.84796,-1.52664 -1.69592,-2.77571s-5.3704,-1.24907 -5.3704,-1.11028l0,-0.00001z" fill="#263238" id="svg_18"/>
   <path class="st3" d="m93.34502,474.83638c0.56531,0 1.13061,-1.24907 -0.28265,-2.63693s-3.95714,-1.943 -4.23979,-1.66543s1.41326,0.9715 2.54387,2.08178s1.41326,2.22057 1.97857,2.22057l0,0.00001z" fill="#263238" id="svg_19"/>
   <path class="st3" d="m110.58684,459.29239c0.28265,0.27757 2.54387,-0.13879 5.65305,-0.13879s5.3704,0.41636 5.65305,0.27757s-1.97857,-1.11028 -5.65305,-1.11028s-5.93571,0.83271 -5.65305,0.9715z" fill="#263238" id="svg_20"/>
   <g class="st4" opacity="0.3" id="svg_21">
    <polygon points="108.60832929611206,444.02599716186523 109.45619916915894,448.8835105895996 162.02962446212769,447.63442611694336 161.7469401359558,443.332088470459 " id="svg_22"/>
   </g>
   <path class="st3" d="m110.02153,453.87975c1.69592,0.27757 3.67449,0.13879 5.3704,-0.13879c1.97857,-0.13879 3.95714,-0.55514 5.65305,-0.9715c1.13061,-0.27757 1.97857,-0.55514 3.10918,-0.83271c0.56531,-0.13879 1.13061,-0.41636 1.69592,-0.69393c0.56531,-0.41636 0.56531,-0.9715 0,-1.38786s-1.41326,-0.55514 -2.26122,-0.55514c-0.56531,0 -1.41326,0.13879 -1.97857,0.13879c-1.13061,0.13879 -2.26122,0.41636 -3.39183,0.69393c-1.69592,0.41636 -3.39183,0.9715 -4.8051,1.66543c-2.26122,1.24907 -3.10918,2.22057 -2.82653,2.22057s1.41326,-0.69393 3.95714,-1.66543c1.41326,-0.55514 3.10918,-0.9715 4.8051,-1.38786c0.84796,-0.27757 1.97857,-0.41636 3.10918,-0.55514c1.13061,-0.13879 1.97857,-0.13879 2.26122,0s0,0.13879 0,0.27757c-0.28265,0.13879 -0.84796,0.41636 -1.13061,0.55514c-0.84796,0.27757 -1.97857,0.55514 -2.82653,0.83271c-1.69592,0.41636 -3.39183,0.83271 -5.08775,1.11028c-2.26122,0.13879 -3.95714,0.41636 -5.65305,0.69393l0,0.00001z" fill="#263238" id="svg_23"/>
   <path class="st3" d="m110.58684,454.15732c0.28265,0 1.13061,-0.83271 1.13061,-2.63693c0,-0.9715 -0.28265,-1.943 -0.84796,-2.9145c-0.28265,-0.55514 -0.84796,-1.11028 -1.41326,-1.52664c-0.56531,-0.69393 -1.97857,-1.24907 -3.67449,-1.24907c-0.84796,0 -1.69592,0.27757 -2.26122,0.83271c-0.28265,0.27757 -0.28265,0.69393 -0.56531,0.9715c-0.28265,0.55514 -0.28265,1.24907 0,1.80421c0.28265,0.9715 1.13061,1.943 2.54387,2.63693c2.26122,1.38786 4.52244,1.52664 4.52244,1.52664s-1.69592,-0.55514 -3.39183,-1.943c-0.84796,-0.69393 -1.69592,-1.52664 -1.97857,-2.49814c-0.28265,-0.55514 -0.28265,-0.9715 0,-1.52664c0,-0.55514 0.56531,-0.9715 0.84796,-0.9715s1.41326,0.41636 1.97857,0.83271c0.56531,0.41636 1.13061,0.9715 1.41326,1.38786c0.56531,0.83271 1.13061,1.66543 1.13061,2.63693c0.84796,1.66543 0.28265,2.63693 0.56531,2.63693l0.00001,0z" fill="#263238" id="svg_24"/>
   <path class="st5" d="m236.64996,231.5452c3.95714,22.62206 12.15407,46.21561 16.11121,68.83766c0.84796,4.16357 1.41326,8.32714 -1.13061,12.35192c-5.08775,7.21685 -37.59281,12.35192 -52.57341,10.27014" fill="#455A64" id="svg_25"/>
   <path class="st3" d="m68.47158,215.44607c0,0 -24.87344,29.83891 -24.87344,34.00248s52.0081,197.21436 52.0081,197.21436l72.64175,-3.05328l-31.93976,-177.36802l11.30611,-38.02726l-79.14277,-12.76828l0.00001,0z" fill="#263238" id="svg_26"/>
   <path class="st3" d="m234.67139,227.79799c0,0 -16.95916,69.53159 -24.87344,96.456c-8.47958,28.03469 -24.59079,33.30855 -24.59079,33.30855l-131.15087,82.57744l-51.72545,-22.76084l115.60497,-90.90458c0,0 30.80915,-100.89714 29.67854,-98.12143s87.05704,-0.55514 87.05704,-0.55514z" fill="#263238" id="svg_27"/>
   <path class="st5" d="m138.00415,269.57246c0,0.13879 0,0.13879 0,0.27757c0,0.27757 0,0.55514 -0.28265,0.83271c-0.28265,0.69393 -0.56531,1.80421 -0.84796,3.19207c-0.84796,2.77571 -2.26122,6.8005 -3.95714,11.79678c-3.39183,10.13135 -8.47958,24.28748 -14.13264,40.80297l0,0l0,0l-26.56936,20.95663l-63.31421,49.54646l-19.22039,14.85006l-5.3704,4.02478l-1.41326,0.9715c-0.28265,0.27757 -0.56531,0.41636 -0.56531,0.27757c0,-0.13879 0.28265,-0.27757 0.28265,-0.41636l1.41326,-1.11028l5.08775,-4.16357l18.93773,-14.98885l62.74891,-49.54646c9.32754,-7.35564 18.37243,-14.4337 26.56936,-20.95663l0,0.13879c5.93571,-16.51549 11.02346,-30.67162 14.69794,-40.80297c1.97857,-4.99628 3.39183,-9.02106 4.52244,-11.79678c0.56531,-1.38786 0.84796,-2.35936 1.13061,-3.19207c0.28265,-0.27757 0.28265,-0.55514 0.28265,-0.69393c0,-0.41636 0,0 0,0l0.00002,0.00001z" fill="#455A64" id="svg_28"/>
   <path class="st5" d="m182.38064,358.81161c-0.28265,0.27757 -0.84796,0.55514 -1.13061,0.83271l-3.67449,2.35936l-13.84998,8.74349l-44.94179,28.86741c-17.52447,11.38042 -33.63568,21.51177 -45.22444,28.86741c-5.93571,3.60843 -10.7408,6.52292 -14.13264,8.60471c-1.69592,0.9715 -2.82653,1.66543 -3.95714,2.22057c-0.56531,0.27757 -0.84796,0.55514 -1.41326,0.83271c0.28265,-0.27757 0.84796,-0.55514 1.13061,-0.83271l3.67449,-2.35936l13.84998,-8.74349l44.94179,-28.86741c17.52447,-11.24163 33.63568,-21.51177 45.22444,-28.86741c5.93571,-3.60843 10.7408,-6.52292 14.13264,-8.60471l3.95714,-2.22057c0.28265,-0.27757 0.84796,-0.55514 1.41326,-0.83271z" fill="#455A64" id="svg_29"/>
   <path class="st0" d="m108.32562,89.15116c0,0 -25.43875,7.49442 -33.07037,14.15613s-48.33362,55.23667 -46.6377,63.14745s39.85404,12.90706 39.85404,12.90706l39.85404,-25.39777l-23.74283,-7.91078l23.74283,-14.4337l0,-42.4684l-0.00001,0.00001z" fill="#DD3D31" id="svg_30"/>
   <path class="st0" d="m149.31026,82.62823l-40.98465,6.38414c0,0 -18.65508,86.87979 -27.98262,99.3705c-5.93571,8.74349 -9.89285,17.76456 -11.87142,27.06319c0,0 5.3704,24.28748 62.74891,27.61834s103.4509,-13.4622 103.4509,-13.4622s34.48363,-42.88475 44.65913,-79.38537s3.10918,-57.45724 3.10918,-57.45724l-63.03156,-11.10285l-70.09788,0.9715l0.00001,-0.00001z" fill="#DD3D31" id="svg_31"/>
   <path class="st0" d="m270.85094,95.39651c-1.69592,0.83271 -27.13466,9.15985 -35.61425,23.31598s-17.80712,28.72862 -17.80712,28.72862l-33.07037,2.08178l18.65508,37.33333c0,0 39.85404,-2.08178 61.90095,-19.98513s35.61425,-39.83147 35.61425,-39.83147s-2.82653,-45.3829 -29.67854,-31.64312l0,0.00001z" fill="#DD3D31" id="svg_32"/>
   <path class="st6" d="m68.47158,179.36181c0,0 92.14479,9.02106 125.78047,-10.40892l-9.89285,-16.51549c0,0 -61.05299,7.07807 -79.99073,4.02478l-35.8969,22.89963l0.00001,0z" fill="#FFBE9D" id="svg_33"/>
   <path class="st6" d="m195.66531,148.69019c0,0 14.13264,-15.4052 15.82855,-15.54399s28.83058,-4.8575 28.83058,-4.8575c0.84796,1.11028 0.84796,2.22057 0,3.33085l9.61019,0.55514c0,0 -1.41326,2.9145 -4.8051,3.33085l3.39183,1.52664c-1.69592,1.11028 -3.95714,2.08178 -6.50101,2.77571c-1.97857,0.55514 -4.52244,0.55514 -6.50101,0c0,0 1.13061,1.11028 -4.23979,2.77571s-14.9806,4.30235 -14.9806,4.30235l-20.63365,1.80421l0.00001,0.00003z" fill="#FFBE9D" id="svg_34"/>
   <path class="st7" d="m195.66531,148.69019l0,0c0.56531,-0.69393 14.13264,-15.54399 15.82855,-15.68277s28.54793,-4.8575 28.83058,-4.8575l0,0l0,0c0.84796,1.11028 0.84796,2.22057 0,3.33085l9.61019,0.55514l0,0c0,0.13879 -1.41326,2.9145 -4.8051,3.33085l3.39183,1.52664l0,0c-1.69592,1.11028 -3.95714,2.08178 -6.50101,2.77571c-1.97857,0.41636 -4.23979,0.41636 -6.21836,0c0.28265,0.27757 0.28265,1.24907 -4.52244,2.77571c-5.65305,1.66543 -14.9806,4.30235 -14.9806,4.30235l0,0l-20.63365,1.943l0.00001,0.00002zm44.94179,-20.40149c-1.41326,0.27757 -27.13466,4.71871 -28.83058,4.8575s-11.02346,10.13135 -15.82855,15.54399l20.63365,-1.80421c0.28265,-0.13879 9.61019,-2.63693 14.9806,-4.30235s4.23979,-2.77571 4.23979,-2.77571l0,-0.13879l0.28265,0.13879c1.97857,0.41636 4.23979,0.41636 6.21836,0c2.54387,-0.69393 4.8051,-1.66543 6.50101,-2.77571l-3.39183,-1.52664l0,0c3.10918,-0.41636 4.52244,-2.9145 4.8051,-3.33085l-9.61019,-0.55514l0,0c0.56531,-1.11028 0.84796,-2.35936 0,-3.33085l-0.00001,-0.00003z" fill="#EB996E" id="svg_35"/>
   <path class="st7" d="m239.75914,131.61956c-5.65305,1.38786 -11.58876,2.49814 -17.80712,3.33085c-2.54387,0.41636 -4.8051,0.83271 -6.78367,1.24907c-1.69592,0.41636 -3.10918,1.11028 -3.95714,1.943c-1.69592,1.38786 -2.26122,2.49814 -2.54387,2.49814c0,-0.9715 0.56531,-1.80421 1.69592,-2.63693c0.84796,-0.9715 2.54387,-1.80421 4.23979,-2.22057c2.26122,-0.55514 4.52244,-0.9715 7.06632,-1.24907c5.65305,-1.38786 11.87142,-2.22057 18.08978,-2.9145l-0.00001,0.00001z" fill="#EB996E" id="svg_36"/>
   <path class="st7" d="m245.9775,135.50555c-1.41326,0.41636 -3.10918,0.69393 -4.8051,0.83271c-3.10918,0.41636 -7.63162,0.69393 -12.15407,1.38786c-3.95714,0.55514 -7.63162,1.38786 -11.02346,2.49814c-2.54387,0.9715 -3.39183,1.80421 -3.67449,1.66543c0.56531,-0.83271 1.69592,-1.52664 3.10918,-2.08178c3.39183,-1.38786 7.06632,-2.35936 11.30611,-2.77571c4.8051,-0.55514 9.04489,-0.83271 12.15407,-1.11028c1.69592,-0.13879 3.39183,-0.27757 5.08775,-0.41636l0.00001,-0.00001z" fill="#EB996E" id="svg_37"/>
   <path class="st7" d="m221.10406,142.58362c3.67449,-1.943 9.04489,-2.9145 14.41529,-2.49814c0,0.27757 -3.39183,0.27757 -7.34897,0.9715s-6.78367,1.66543 -7.06632,1.52664z" fill="#EB996E" id="svg_38"/>
   <path class="st6" d="m187.18573,153.4089l-77.1642,-10.54771l-22.89487,12.35192c0,0 78.57746,30.25526 114.47436,29.70012" fill="#FFBE9D" id="svg_39"/>
   <path class="st7" d="m201.60102,184.91323c-3.10918,0.13879 -6.50101,0 -9.61019,-0.27757c-8.47958,-0.83271 -16.95916,-2.35936 -24.87344,-4.16357c-20.351,-4.57993 -46.6377,-12.49071 -73.77237,-22.48327l-6.78367,-2.49814l-0.56531,-0.27757l0.56531,-0.27757l23.17752,-12.35192l0.28265,-0.13879l0.28265,0l55.39994,7.77199l15.82855,2.22057l4.23979,0.69393c0.56531,0 0.84796,0.13879 1.41326,0.27757c-0.56531,0 -1.13061,-0.13879 -1.41326,-0.13879l-4.23979,-0.55514l-16.11121,-2.08178l-55.68259,-7.63321l0.56531,-0.13879l-22.89487,12.35192l0,-0.55514l6.78367,2.49814c27.13466,9.85378 53.13872,17.90334 73.20706,22.62206c7.91428,1.943 16.11121,3.33085 24.59079,4.30235c1.41326,0.13879 2.54387,0.27757 3.95714,0.27757c1.13061,0.13879 1.97857,0.13879 3.10918,0.13879c0.84796,0.27757 1.69592,0.27757 2.54387,0.41636l0.00001,0z" fill="#EB996E" id="svg_40"/>
   <path class="st3" d="m237.78057,110.10778c0,0.9715 -0.56531,2.08178 -1.13061,3.05328c-0.84796,1.80421 -2.26122,4.30235 -3.67449,7.21685s-3.10918,5.27385 -4.23979,7.07807c-0.56531,0.9715 -1.13061,1.943 -2.26122,2.9145c0,-0.9715 0.56531,-2.08178 1.13061,-3.05328c0.84796,-1.80421 2.26122,-4.30235 3.67449,-7.21685s3.10918,-5.27385 4.23979,-7.07807c0.56531,-0.9715 1.41326,-1.943 2.26122,-2.9145z" fill="#263238" id="svg_41"/>
   <path class="st3" d="m234.38874,160.90332c-0.28265,0 -1.13061,-1.943 -2.82653,-4.8575c-1.13061,-1.66543 -2.82653,-3.33085 -5.08775,-4.71871c-2.54387,-1.66543 -6.50101,-2.9145 -10.7408,-3.33085c-4.52244,-0.13879 -9.04489,0.13879 -13.28468,0.69393l-10.7408,1.11028c-1.41326,0.13879 -2.82653,0.27757 -3.95714,0.55514c-0.84796,0.13879 -1.69592,0.55514 -1.97857,0.9715c-0.28265,0.41636 -0.28265,0.83271 0,1.24907c0,0 -1.13061,-0.41636 -0.56531,-1.24907c0.28265,-0.55514 1.13061,-0.9715 2.26122,-1.24907c1.41326,-0.27757 2.82653,-0.55514 4.23979,-0.69393l10.7408,-1.24907c4.52244,-0.69393 9.04489,-0.9715 13.56733,-0.83271c4.8051,0.41636 8.76224,1.80421 11.58876,3.60843c2.26122,1.52664 3.95714,3.19207 4.8051,4.99628c0.56531,1.24907 1.13061,2.35936 1.69592,3.60843c0,0.55514 0.28265,0.9715 0.28265,1.38786l0.00001,-0.00001z" fill="#263238" id="svg_42"/>
   <path class="st3" d="m245.69485,152.71497c-2.26122,-1.943 -5.3704,-3.74721 -9.04489,-5.13507c-6.21836,-2.22057 -12.71937,-2.49814 -12.71937,-2.77571c1.41326,-0.13879 2.82653,-0.13879 4.23979,0.13879c3.39183,0.41636 6.50101,0.9715 9.32754,1.943c2.82653,0.9715 5.08775,2.22057 6.78367,3.74721c0.84796,0.69393 1.13061,1.38786 1.41326,2.08178z" fill="#263238" id="svg_43"/>
   <path class="st3" d="m300.52948,126.90084c0,0.27757 -0.28265,0.55514 -0.56531,0.83271l-1.41326,2.22057c-1.41326,2.08178 -3.39183,4.8575 -5.65305,8.18835s-5.3704,7.63321 -9.61019,12.07435s-9.04489,9.15985 -14.69794,14.01735c-5.3704,4.57993 -12.43672,8.60471 -20.63365,12.07435c-6.78367,2.77571 -14.13264,5.13507 -22.32957,6.8005c-5.3704,1.11028 -11.02346,1.943 -16.95916,2.35936c-1.97857,0.13879 -3.67449,0.13879 -4.8051,0.13879c-0.56531,0 -1.13061,0 -1.69592,0c0,-0.13879 2.26122,-0.13879 6.50101,-0.55514c5.65305,-0.55514 11.30611,-1.38786 16.67651,-2.49814c17.52447,-4.02478 32.50507,-10.54771 42.11526,-18.87484c5.65305,-4.71871 10.45815,-9.57621 14.9806,-13.87856s7.06632,-8.46592 9.61019,-11.93556s4.52244,-6.24535 6.21836,-8.18835c0.56531,-0.83271 1.41326,-1.66543 1.69592,-2.22057c0,0 0.28265,-0.27757 0.56531,-0.55514l-0.00001,-0.00003z" fill="#263238" id="svg_44"/>
   <path class="st3" d="m276.504,96.36801c0,0.13879 -6.21836,1.38786 -13.56733,3.46964s-12.43672,4.30235 -12.71937,4.16357c3.39183,-1.943 7.34897,-3.60843 11.87142,-4.8575c4.52244,-1.38786 9.32754,-2.35936 14.41529,-2.77571l-0.00001,0z" fill="#263238" id="svg_45"/>
   <path class="st3" d="m105.21644,127.73356c0.28265,-2.35936 1.13061,-4.71871 2.26122,-7.07807c0.84796,-2.35936 1.97857,-4.71871 3.67449,-6.93928c-0.28265,2.35936 -1.13061,4.71871 -2.26122,7.07807c-0.84796,2.35936 -1.97857,4.57993 -3.67449,6.93928z" fill="#263238" id="svg_46"/>
   <path class="st3" d="m213.47244,195.59972c-1.41326,0.41636 -2.82653,0.69393 -4.23979,1.11028c-1.41326,0.27757 -3.10918,0.69393 -5.08775,1.11028s-4.23979,0.83271 -6.78367,1.24907c-6.21836,1.11028 -12.15407,1.943 -18.65508,2.63693c-7.63162,0.83271 -15.5459,1.38786 -23.46018,1.80421c-7.91428,0.27757 -15.82855,0.41636 -23.74283,0.27757c-6.50101,-0.13879 -12.71937,-0.55514 -19.22039,-0.9715c-2.82653,-0.13879 -5.08775,-0.41636 -7.34897,-0.69393s-3.95714,-0.41636 -5.3704,-0.69393c-1.69592,-0.13879 -3.10918,-0.41636 -4.52244,-0.69393c1.69592,0.13879 3.10918,0.27757 4.8051,0.41636c1.41326,0.13879 3.39183,0.27757 5.3704,0.55514s4.52244,0.41636 7.34897,0.55514c6.21836,0.41636 12.71937,0.69393 19.22039,0.83271c15.5459,0.27757 31.37445,-0.41636 46.6377,-2.08178c6.21836,-0.69393 12.43672,-1.52664 18.65508,-2.49814c2.54387,-0.41636 4.8051,-0.83271 7.06632,-1.24907s3.67449,-0.69393 5.08775,-0.9715c1.13061,-0.13879 2.54387,-0.41636 4.23979,-0.69393l0,0.00002z" fill="#263238" id="svg_47"/>
   <path class="st3" d="m145.91843,216.83392c-5.93571,-0.41636 -11.58876,-1.11028 -16.95916,-2.08178c-5.65305,-0.83271 -11.02346,-1.943 -16.11121,-3.33085c5.65305,0.69393 11.02346,1.66543 16.39386,2.63693c5.65305,0.83271 11.30611,1.80421 16.67651,2.77571l0,-0.00001z" fill="#263238" id="svg_48"/>
   <g class="st4" opacity="0.3" id="svg_49">
    <path d="m82.88687,182.83145c8.76224,3.33085 19.78569,5.13507 31.0918,5.13507c10.1755,-0.13879 20.06834,-1.66543 30.24384,-1.52664c7.91428,0.27757 15.82855,1.11028 23.46018,2.35936c13.00203,1.66543 26.28671,2.77571 39.57138,1.66543s26.00405,-4.8575 31.37445,-10.82528c-18.08978,5.96778 -40.70199,7.07807 -60.77034,3.05328c-5.3704,-1.11028 -10.7408,-2.63693 -16.39386,-3.05328c-7.06632,-0.55514 -14.13264,0.55514 -21.19896,1.24907c-19.50304,1.943 -39.57138,0.41636 -59.35708,-1.24907" id="svg_50"/>
   </g>
   <g class="st4" opacity="0.3" id="svg_51">
    <path d="m115.10928,212.80914c8.76224,7.07807 23.74283,11.79678 40.41934,12.62949c3.67449,0.27757 7.34897,0 10.7408,-0.41636c3.39183,-0.55514 6.50101,-1.66543 7.91428,-3.33085c-3.95714,-1.24907 -8.19693,-2.08178 -12.43672,-2.49814l-46.0724,-6.24535" id="svg_52"/>
   </g>
   <path class="st8" d="m170.79187,146.88597c-0.28265,0.13879 -6.21836,-7.35564 -13.00203,-16.51549s-12.15407,-16.65427 -11.58876,-16.79306s6.21836,7.35564 13.00203,16.51549s12.15407,16.79306 11.58876,16.79306z" fill="#FAFAFA" id="svg_53"/>
   <path class="st8" d="m201.31837,109.83021c0.28265,0.13879 -15.82855,7.35564 -36.17955,16.09913s-36.4622,15.68277 -36.74486,15.54399s15.82855,-7.35564 36.17955,-16.09913s36.4622,-15.68277 36.74486,-15.54399z" fill="#FAFAFA" id="svg_54"/>
   <path class="st6" d="m183.7939,98.58858c17.80712,0 31.93976,-7.07807 31.93976,-15.68277l0,0l0,-47.88104c0,-12.62949 -20.63365,-23.03841 -46.6377,-23.03841c-0.56531,0 -1.13061,0 -1.41326,0l-0.56531,0c-25.43875,0.9715 -44.94179,11.51921 -44.94179,24.00991c0,10.96406 0.28265,22.89963 1.41326,28.72862c2.26122,12.35192 27.98262,13.32342 27.98262,13.32342l0,4.8575c0,8.60471 14.41529,15.68277 32.22241,15.68277l0,0l0.00001,0z" fill="#FFBE9D" id="svg_55"/>
   <path class="st7" d="m151.57149,77.77074c11.58876,-0.41636 22.89487,-2.49814 31.93976,-5.96778c0,0 -6.21836,9.15985 -31.65711,9.15985l-0.28265,-3.19207z" fill="#EB996E" id="svg_56"/>
   <path class="st3" d="m130.65518,44.73976c0.28265,0.9715 1.69592,1.66543 3.67449,1.66543s3.39183,-0.69393 3.39183,-1.66543l0,0c0,-0.9715 -1.69592,-1.66543 -3.67449,-1.66543s-3.39183,0.69393 -3.39183,1.66543l0,0z" fill="#263238" id="svg_57"/>
   <path class="st3" d="m128.67661,40.99255c0.56531,0.13879 3.10918,-0.83271 6.78367,-1.11028s6.78367,0.69393 7.34897,0.41636s-0.28265,-0.55514 -1.69592,-0.83271c-1.69592,-0.55514 -3.95714,-0.69393 -5.93571,-0.55514c-1.97857,0.13879 -3.95714,0.41636 -5.3704,1.11028c-1.13061,0.41636 -1.41326,0.83271 -1.13061,0.9715l0,-0.00001z" fill="#263238" id="svg_58"/>
   <path class="st3" d="m167.68269,43.90705c0,0.9715 1.69592,1.66543 3.67449,1.66543s3.39183,-0.69393 3.39183,-1.66543l0,0c-0.28265,-0.9715 -1.69592,-1.66543 -3.67449,-1.66543s-3.39183,0.69393 -3.39183,1.66543l0,0z" fill="#263238" id="svg_59"/>
   <path class="st3" d="m166.83473,39.88226c0.56531,0.13879 3.10918,-0.83271 6.78367,-1.11028c3.67449,-0.27757 6.78367,0.69393 7.34897,0.41636s-0.28265,-0.55514 -1.69592,-0.83271c-1.69592,-0.55514 -3.95714,-0.69393 -5.93571,-0.55514c-1.97857,0.13879 -3.95714,0.41636 -5.3704,1.11028c-1.13061,0.41636 -1.41326,0.83271 -1.13061,0.9715l0,-0.00001z" fill="#263238" id="svg_60"/>
   <path class="st3" d="m155.24597,54.45475c-1.97857,-0.27757 -4.23979,-0.27757 -6.21836,-0.27757c-1.13061,0 -1.97857,-0.13879 -2.26122,-0.41636c-0.28265,-0.55514 0,-0.9715 0.56531,-1.52664c0.56531,-1.24907 1.41326,-2.49814 2.26122,-3.886c2.26122,-3.19207 3.95714,-6.52292 4.8051,-9.99256c-0.56531,-0.13879 -3.39183,4.30235 -6.50101,9.71499c-0.84796,1.38786 -1.41326,2.63693 -2.26122,3.886c-0.56531,0.55514 -0.56531,1.24907 -0.28265,1.943c0.28265,0.27757 1.13061,0.55514 1.69592,0.69393c0.56531,0 1.13061,0 1.69592,0c2.26122,0.13879 4.23979,0.13879 6.50101,-0.13879l-0.00002,0z" fill="#263238" id="svg_61"/>
   <path class="st3" d="m166.83473,55.28747c-0.56531,0 -0.28265,2.08178 -3.67449,3.60843s-7.91428,1.52664 -7.91428,1.80421s1.13061,0.41636 2.82653,0.27757c2.54387,-0.13879 4.8051,-0.55514 6.50101,-1.38786s2.82653,-1.943 2.82653,-3.05328c0.28265,-0.69393 -0.28265,-1.24907 -0.56531,-1.24907l0.00001,0z" fill="#263238" id="svg_62"/>
   <path class="st3" d="m164.57351,32.38784c0.56531,0.55514 4.23979,0.13879 9.04489,0.13879s8.47958,0.55514 8.76224,0c0.28265,-0.27757 -0.56531,-0.69393 -1.97857,-1.11028c-1.97857,-0.55514 -4.23979,-0.83271 -6.78367,-0.83271c-2.26122,0 -4.8051,0.13879 -6.78367,0.69393c-1.69592,0.41636 -2.54387,0.83271 -2.26122,1.11028l0,-0.00001z" fill="#263238" id="svg_63"/>
   <path class="st3" d="m129.24192,35.44112c0.84796,0.41636 3.39183,-0.13879 6.50101,-0.27757s5.93571,0 6.50101,-0.41636c0.28265,-0.27757 -0.28265,-0.69393 -1.41326,-0.9715c-1.69592,-0.41636 -3.67449,-0.55514 -5.3704,-0.55514c-1.97857,0.13879 -3.67449,0.41636 -5.08775,1.11028c-1.13061,0.41636 -1.41326,0.9715 -1.13061,1.11028l0,0.00001z" fill="#263238" id="svg_64"/>
   <path class="st3" d="m186.05512,22.53406l0,0c4.23979,1.38786 7.34897,3.46964 8.47958,5.96778l0,0.27757c1.69592,3.46964 1.97857,7.07807 3.67449,10.54771s1.41326,6.10657 8.47958,6.93928c3.67449,0.41636 7.63162,-0.41636 9.89285,-1.943c0.56531,-0.55514 0.84796,-1.11028 0.56531,-1.66543c0,-8.60471 3.39183,-11.93556 1.97857,-20.81784c-0.28265,-2.35936 -3.10918,-4.57993 -7.34897,-5.829c-3.95714,-1.24907 -9.04489,-2.35936 -13.00203,-1.24907s-8.76224,5.27385 -11.87142,7.07807" fill="#263238" id="svg_65"/>
   <path class="st6" d="m208.38469,40.99255c0.56531,-0.13879 16.95916,-3.19207 17.80712,5.27385s-16.67651,7.21685 -16.67651,6.93928s-1.13061,-12.21313 -1.13061,-12.21313z" fill="#FFBE9D" id="svg_66"/>
   <path class="st7" d="m214.3204,49.73604c0,0 0.28265,0.13879 0.84796,0.13879c0.84796,0.13879 1.41326,0.13879 2.26122,0c2.26122,-0.83271 3.39183,-2.08178 3.10918,-3.33085c0,-0.69393 -0.28265,-1.38786 -1.13061,-2.08178c-0.28265,-0.55514 -1.41326,-0.9715 -2.26122,-1.11028c-0.84796,-0.13879 -1.41326,0.13879 -1.69592,0.41636c-0.28265,0.27757 0,0.41636 -0.28265,0.41636s-0.28265,-0.13879 -0.28265,-0.55514c0,-0.27757 0.28265,-0.41636 0.56531,-0.55514c0.56531,0 1.13061,0 1.69592,0c1.41326,0.13879 2.82653,0.55514 3.39183,1.24907c0.84796,0.69393 1.13061,1.52664 1.13061,2.35936c0.28265,1.52664 -1.13061,3.05328 -3.95714,3.74721c-0.84796,0.13879 -1.97857,0.13879 -2.82653,-0.13879c-0.56531,-0.27757 -0.56531,-0.41636 -0.56531,-0.55514l0,-0.00003z" fill="#EB996E" id="svg_67"/>
   <path class="st3" d="m199.90511,16.14992c3.67449,-3.60843 -8.76224,-7.91078 -17.52447,-8.88228s-19.50304,1.52664 -27.69997,3.19207c-5.08775,1.11028 -10.45815,2.49814 -15.82855,2.63693c-3.95714,0 -7.63162,-0.27757 -11.30611,-0.9715c-3.67449,-0.55514 -7.34897,-0.83271 -11.30611,-0.55514c-3.67449,0.27757 -7.06632,1.38786 -8.47958,3.19207c-1.13061,1.66543 0.84796,3.46964 4.23979,4.02478c0.28265,0 0.56531,0.13879 0.84796,0.13879c-4.23979,-0.9715 -9.32754,0 -11.30611,2.08178s0,4.57993 4.23979,5.55142c1.97857,0.41636 3.95714,0.41636 5.93571,0.13879c-2.54387,-0.83271 -6.21836,0.83271 -5.65305,2.35936c0.84796,1.52664 3.39183,2.63693 6.50101,2.9145c7.34897,1.24907 15.82855,0.41636 22.89487,-1.11028s13.84998,-3.74721 20.9163,-5.41264s19.22039,-4.44114 26.56936,-3.46964c5.65305,0.69393 9.89285,3.74721 13.00203,2.9145c2.82653,-0.83271 4.52244,-2.35936 4.8051,-4.02478c0,-1.52664 -0.28265,-3.19207 -0.84796,-4.71871" fill="#263238" id="svg_68"/>
   <path class="st5" d="m110.58684,18.78685c0,0 0.84796,0.55514 3.10918,1.52664c2.82653,1.24907 6.21836,2.22057 10.1755,2.63693c5.65305,0.69393 11.30611,0.41636 16.39386,-0.9715c5.65305,-1.52664 10.1755,-4.30235 15.5459,-6.93928c4.8051,-2.63693 11.30611,-4.57993 18.65508,-5.41264c5.93571,-0.55514 12.15407,0.13879 16.95916,2.08178c3.10918,1.38786 4.8051,3.33085 4.8051,5.27385c0,0.55514 -0.28265,1.11028 -0.56531,1.52664c-0.28265,0.27757 -0.56531,0.55514 -0.56531,0.55514c0.28265,-0.69393 0.28265,-1.38786 0.28265,-2.08178c-0.28265,-1.943 -1.97857,-3.60843 -5.08775,-4.8575c-4.23979,-1.66543 -10.1755,-2.35936 -15.82855,-1.80421c-6.78367,0.83271 -13.00203,2.63693 -17.52447,5.13507c-5.3704,2.63693 -9.89285,5.41264 -16.11121,7.07807c-5.3704,1.38786 -11.58876,1.80421 -17.52447,0.83271c-3.95714,-0.55514 -7.34897,-1.52664 -10.1755,-2.9145c-0.84796,-0.41636 -1.41326,-0.83271 -1.97857,-1.24907c-0.28265,-0.27757 -0.56531,-0.41636 -0.56531,-0.41636l0.00002,0.00001z" fill="#455A64" id="svg_69"/>
   <path class="st5" d="m212.62448,40.43741c0,0 -0.84796,-0.13879 -1.69592,-0.83271c-1.13061,-0.9715 -1.41326,-1.943 -1.41326,-3.05328c0,-2.77571 4.23979,-5.829 4.23979,-9.57621c0,-1.80421 -0.84796,-3.46964 -2.82653,-4.99628c-1.69592,-1.11028 -3.95714,-2.08178 -6.78367,-2.49814c-1.97857,-0.27757 -3.95714,-0.41636 -5.93571,-0.13879c-0.28265,0.13879 -1.13061,0.13879 -1.69592,0.27757c0,0 0.56531,-0.27757 1.97857,-0.55514c1.97857,-0.27757 4.23979,-0.41636 6.21836,-0.13879c3.10918,0.41636 5.93571,1.24907 7.91428,2.63693c2.26122,1.52664 3.39183,3.46964 3.10918,5.41264c0,1.943 -0.84796,3.74721 -2.54387,5.41264c-1.13061,1.38786 -1.97857,2.77571 -2.26122,4.16357c-0.28265,1.38786 0.28265,2.63693 1.69592,3.886l0,-0.00001z" fill="#455A64" id="svg_70"/>
   <path class="st5" d="m236.64996,231.5452c-3.39183,-2.49814 -11.02346,-1.80421 -16.95916,-1.11028c-26.00405,3.60843 -55.11728,11.93556 -81.9693,10.40892s-49.18158,-19.98513 -68.40196,-29.42255l-13.56733,17.07063c6.50101,5.41264 14.13264,14.15613 63.31421,17.3482c0,0.41636 0,0.83271 0,1.24907c0.28265,1.52664 1.69592,2.9145 3.67449,4.02478c-7.34897,4.30235 -12.43672,9.57621 -14.13264,15.26642c-1.13061,3.74721 -0.84796,7.63321 -2.54387,11.38042s-5.3704,7.63321 -12.15407,9.43742c-2.26122,0.41636 -3.95714,1.11028 -5.3704,1.943c-0.84796,0.9715 -0.84796,2.08178 0.28265,2.9145c3.39183,3.46964 13.84998,4.30235 20.9163,2.49814s11.58876,-5.41264 14.69794,-9.02106c7.06632,-8.04957 9.61019,-16.93185 12.15407,-25.67534l0,-0.27757c1.41326,0.69393 3.10918,1.11028 4.8051,1.38786c3.39183,0.55514 7.91428,0.41636 9.89285,1.80421c0.84796,0.9715 1.41326,1.943 1.13061,3.05328c0,1.11028 0.84796,2.08178 2.82653,2.63693c2.26122,0.27757 4.52244,0 6.21836,-0.69393l14.41529,-4.30235c0.84796,-0.27757 1.69592,-0.55514 1.69592,-0.9715s-0.84796,-0.83271 -1.97857,-0.83271s-1.97857,0 -2.82653,0c-1.97857,-0.27757 -3.39183,-0.9715 -3.95714,-1.80421s-1.13061,-1.80421 -1.69592,-2.63693c-2.82653,-3.33085 -8.76224,-5.69021 -15.82855,-6.52292c-2.82653,-0.41636 -5.93571,-0.55514 -8.76224,-0.69393c0.84796,-0.55514 1.41326,-1.11028 1.69592,-1.80421c0.28265,-0.41636 0.28265,-0.9715 0.28265,-1.38786c22.04691,0.41636 44.09383,-0.41636 65.57544,-2.49814c7.63162,-0.55514 15.5459,-0.9715 23.46018,-0.9715c0.84796,-3.19207 6.21836,-9.57621 3.10918,-11.79678l-0.00001,-0.00001z" fill="#455A64" id="svg_71"/>
   <path class="st3" d="m122.45825,251.53033c0,0 0.84796,-0.9715 3.95714,-1.943c1.69592,-0.41636 3.95714,-0.69393 5.93571,-0.69393c0.56531,0 1.13061,0 1.69592,0c0.84796,0 1.41326,0.27757 1.97857,0.55514c0.28265,0.27757 0.56531,0.69393 0.84796,0.9715c0,0.27757 0.28265,0.55514 0.28265,0.9715c0.56531,2.22057 0.84796,4.30235 0.28265,6.52292c0,0.9715 -0.56531,1.80421 -1.13061,2.63693c0.28265,-3.05328 0.28265,-5.96778 -0.28265,-9.02106c0,-0.55514 -0.28265,-1.11028 -0.84796,-1.52664c-0.28265,-0.27757 -1.69592,-0.27757 -2.82653,-0.27757c-1.97857,0 -3.67449,0.13879 -5.3704,0.55514c-1.69592,0.13879 -3.10918,0.69393 -4.52244,1.24907l-0.00001,0z" fill="#263238" id="svg_72"/>
   <path class="st3" d="m141.67864,250.42004c-0.28265,0.13879 -1.41326,-0.13879 -3.10918,-0.27757s-3.10918,-0.27757 -3.10918,-0.41636s1.41326,-0.55514 3.39183,-0.27757s3.10918,0.83271 2.82653,0.9715z" fill="#263238" id="svg_73"/>
   <path class="st3" d="m143.93986,248.33826c-0.28265,0 0.28265,-1.11028 -0.56531,-2.77571c-0.28265,-0.9715 -1.41326,-1.80421 -2.54387,-2.49814c-1.69592,-0.83271 -3.95714,-1.24907 -6.21836,-1.24907c-2.54387,-0.13879 -4.8051,0 -7.34897,0.27757c-1.97857,0.27757 -3.67449,0.83271 -4.8051,1.52664s-1.97857,1.52664 -2.54387,2.35936c-0.28265,-0.9715 0.28265,-1.943 1.69592,-2.77571s3.10918,-1.38786 5.3704,-1.80421c2.54387,-0.41636 5.08775,-0.55514 7.63162,-0.41636c2.82653,0 5.3704,0.69393 7.34897,1.66543c1.41326,0.83271 2.26122,1.80421 2.54387,2.9145c0.28265,0.83271 0.28265,1.80421 -0.56531,2.77571l0.00001,-0.00001z" fill="#263238" id="svg_74"/>
   <path class="st3" d="m136.87354,242.23169c0.28265,0 0.84796,0.27757 1.69592,0.9715c0.84796,0.9715 1.13061,1.943 0.56531,3.05328c-0.56531,0.9715 -1.41326,1.943 -3.10918,2.63693c-1.13061,0.55514 -2.26122,0.69393 -2.26122,0.55514c3.95714,-1.80421 5.3704,-4.71871 3.10918,-7.21685l0,0l-0.00001,0z" fill="#263238" id="svg_75"/>
   <path class="st3" d="m91.36645,232.10034c4.23979,2.08178 9.04489,4.16357 13.84998,5.96778c5.08775,1.66543 10.45815,3.19207 15.82855,4.57993c-1.69592,-0.13879 -3.67449,-0.41636 -5.3704,-0.83271c-8.19693,-1.66543 -15.5459,-4.30235 -21.48161,-7.63321c-1.13061,-0.55514 -1.97857,-1.24907 -2.82653,-2.08178l0.00001,-0.00001z" fill="#263238" id="svg_76"/>
   <path class="st3" d="m119.91438,243.89712c-2.54387,0.27757 -5.08775,0.27757 -7.63162,0c-2.54387,0 -5.08775,-0.41636 -7.06632,-1.11028c2.54387,0 5.08775,0.13879 7.34897,0.41636c2.54387,0 5.08775,0.27757 7.34897,0.69393l0,-0.00001z" fill="#263238" id="svg_77"/>
   <path class="st3" d="m173.33575,242.78683c-4.8051,0.9715 -9.61019,1.52664 -14.69794,1.66543c-5.08775,0.41636 -10.1755,0.41636 -15.26325,0c0,-0.13879 6.78367,-0.27757 14.9806,-0.83271s14.9806,-0.9715 14.9806,-0.83271l-0.00001,-0.00001z" fill="#263238" id="svg_78"/>
   <path class="st3" d="m159.20311,246.25647c-2.54387,0.41636 -5.3704,0.55514 -7.91428,0.27757c-2.82653,0 -5.3704,-0.41636 -7.63162,-1.11028c2.54387,0 5.3704,0.13879 7.91428,0.41636c2.54387,0 5.08775,0.13879 7.63162,0.41636l0,-0.00001z" fill="#263238" id="svg_79"/>
   <path class="st3" d="m119.34907,270.96031c-0.56531,-1.11028 -0.84796,-2.08178 -0.56531,-3.19207c0.28265,-5.27385 3.39183,-10.40892 9.32754,-14.85006c1.13061,-0.9715 2.54387,-1.80421 4.23979,-2.49814c-3.95714,3.05328 -7.06632,6.38414 -9.61019,9.71499c-1.97857,3.60843 -3.10918,7.21685 -3.39183,10.82528z" fill="#263238" id="svg_80"/>
   <path class="st3" d="m157.50719,260.41261c-0.28265,0 -0.84796,-0.69393 -2.26122,-1.66543c-1.97857,-1.24907 -4.23979,-2.49814 -6.78367,-3.46964c-3.95714,-1.38786 -7.34897,-2.9145 -10.7408,-4.57993c4.23979,1.11028 7.91428,2.49814 11.58876,4.02478c2.54387,1.11028 4.8051,2.35936 6.50101,3.74721c1.41326,0.55514 1.69592,1.24907 1.69592,1.943l0,0.00001z" fill="#263238" id="svg_81"/>
   <path class="st3" d="m230.14895,244.31347c-0.28265,-1.80421 0,-3.60843 0.56531,-5.41264c0.28265,-1.80421 0.84796,-3.60843 2.26122,-5.27385c0.28265,1.80421 0,3.60843 -0.56531,5.41264c-0.28265,1.80421 -1.13061,3.60843 -2.26122,5.27385z" fill="#263238" id="svg_82"/>
   <path class="st5" d="m81.19095,154.51918l-46.35505,-1.11028c-4.52244,-0.13879 -8.76224,-1.52664 -10.1755,-3.74721l-26.85201,-38.72119c-1.97857,-2.9145 1.13061,-6.10657 7.06632,-7.07807c1.41326,-0.27757 2.82653,-0.27757 4.23979,-0.27757l66.70605,1.11028c5.08775,0.13879 9.32754,1.80421 10.7408,4.16357l16.95916,32.47583c3.10918,5.69021 -3.95714,11.38042 -15.5459,12.90706c-2.26122,0.27757 -4.52244,0.41636 -6.78367,0.27757l0.00001,0.00001z" fill="#455A64" id="svg_83"/>
   <path class="st6" d="m69.31954,139.11398c-3.39183,1.66543 -37.87547,-6.93928 -43.24587,-6.38414s-8.76224,2.08178 -5.65305,3.33085s26.56936,6.10657 27.69997,7.77199c0,0 -35.61425,-5.55142 -37.31016,-4.44114s-3.95714,2.77571 -0.28265,3.60843s34.48363,5.55142 37.02751,6.24535c4.52244,0.9715 9.04489,1.80421 13.84998,2.35936c4.8051,0.69393 9.61019,1.66543 14.41529,2.63693c7.34897,1.38786 15.26325,1.52664 22.61222,0.27757l3.67449,-0.69393c5.93571,-0.9715 9.61019,-3.74721 9.61019,-6.8005l0,-6.10657l4.52244,-4.8575l-7.91428,-8.18835l-13.00203,-2.08178l5.08775,7.63321c-5.08775,1.24907 -13.84998,2.08178 -18.08978,0.83271s-21.76426,-9.57621 -24.87344,-8.88228s-6.21836,2.77571 -3.10918,4.57993s19.22039,7.63321 15.82855,9.29864" fill="#FFBE9D" id="svg_84"/>
   <path class="st2" d="m48.12058,117.87978c0,1.38786 -2.26122,2.49814 -5.08775,2.49814s-5.08775,-1.11028 -5.08775,-2.49814s2.26122,-2.49814 5.08775,-2.49814l0,0c3.10918,0 5.08775,1.11028 5.08775,2.49814z" fill="#FFFFFF" id="svg_85"/>
   <path class="st3" d="m93.91033,134.1177c0,0 -0.28265,-0.13879 -0.56531,-0.55514s-0.84796,-1.11028 -1.41326,-1.80421c-1.13061,-1.52664 -2.54387,-3.886 -4.52244,-6.8005s-3.95714,-6.24535 -5.93571,-10.13135c-1.13061,-1.943 -1.41326,-4.16357 -3.95714,-5.69021s-7.63162,-1.80421 -12.15407,-1.80421c-18.65508,-0.13879 -35.61425,-0.27757 -47.76831,-0.55514l-14.41529,-0.13879l-3.67449,-0.13879c-0.56531,0 -0.84796,0 -1.41326,-0.13879c0.56531,0 0.84796,0 1.41326,0l3.95714,0l14.41529,0c12.15407,0 29.11323,0.13879 47.76831,0.27757c2.26122,0 4.8051,0.13879 7.06632,0.41636c2.26122,0.27757 4.52244,0.83271 6.21836,1.66543c1.41326,0.83271 2.26122,1.943 2.82653,3.05328c0.56531,0.9715 0.84796,1.943 1.41326,2.9145c1.97857,3.886 3.95714,7.21685 5.65305,10.13135s3.10918,5.13507 3.95714,6.8005c0.56531,0.69393 0.84796,1.38786 1.13061,1.80421c0,0.41636 0,0.55514 0,0.69393l0.00001,0z" fill="#263238" id="svg_86"/>
  </g>
  <path d="m145.33073,80.06371c0.35524,0 0.71047,0 0.71047,0c0,0 1.35834,0.16209 2.13144,0.33333c0.34574,0.07658 0.64787,0.16209 1.42095,0.33334c1.03722,0.22976 1.7762,0 2.13144,0c0,0 0.71047,0 2.13144,0c1.06571,0 2.13144,0 2.84191,0c0.71047,0 1.7762,0 2.48668,0c1.06573,0 2.13144,0.33333 3.19715,0.33333c1.7762,0 2.84191,0 4.61812,0c0.35524,0 1.42096,-0.33333 1.7762,-0.33333c0,0 1.06571,0 3.19715,0c2.13144,0 3.5524,-0.33334 5.32859,-0.33334c0.35524,0 0.71049,0 1.42096,0c1.7762,0 5.32859,0 7.10479,0c2.13142,0 3.90762,0 5.68383,0c1.42095,0 3.90762,0 5.68383,0c1.42096,0 2.84191,0 4.97335,0c1.7762,0 3.19715,0 4.61812,0c1.06571,0 1.7762,0 2.13144,0c0.71047,0 1.06571,0 2.13144,0c1.06571,0 2.84191,0 3.90762,0c0.71047,0 2.13144,0 3.19715,0c0.35525,0 0.4593,0.23569 0.71049,0c0.25119,-0.23569 0.35524,-0.66666 1.06571,-0.66666l0,0l0.71047,0l0.35525,0" id="svg_91" fill="#ffffff"/>
 </g>

</svg>